<svg width="20" height="20" viewBox="0 0 20 20" fill="none" xmlns="http://www.w3.org/2000/svg">
<mask id="mask0_9774_4809" style="mask-type:alpha" maskUnits="userSpaceOnUse" x="3" y="3" width="15" height="15">
<path d="M10.2287 4.19148C13.5579 4.19148 16.2679 6.89982 16.2679 10.229C16.2679 13.5582 13.5579 16.2682 10.2287 16.2682C6.89953 16.2682 4.1912 13.5582 4.1912 10.229C4.1912 6.89982 6.89953 4.19148 10.2287 4.19148ZM11.1129 8.44648L9.93203 12.6273C9.85203 12.9115 9.81286 13.079 9.81286 13.1323C9.81286 13.1957 9.8312 13.249 9.86953 13.289C9.90703 13.329 9.95286 13.3465 10.0037 13.3465C10.0637 13.3465 10.1345 13.3165 10.2187 13.2515C10.4445 13.074 10.6737 12.8173 10.9045 12.4882L11.1145 12.6257C10.8429 13.039 10.5245 13.3873 10.1595 13.6707C9.8887 13.8807 9.63036 13.9857 9.3837 13.9857C9.22036 13.9857 9.08786 13.9365 8.98453 13.839C8.88036 13.7423 8.8287 13.6198 8.8287 13.474C8.8287 13.3248 8.8787 13.0815 8.97786 12.7398L9.7537 10.0673C9.88036 9.62982 9.94453 9.35565 9.94453 9.24398C9.94453 9.15648 9.9137 9.08482 9.85286 9.02898C9.79036 8.97315 9.7062 8.94565 9.5987 8.94565C9.5112 8.94565 9.33036 8.96732 9.0562 9.01148V8.77898L11.1129 8.44648ZM11.0354 6.31398C11.202 6.31398 11.3429 6.37148 11.4579 6.48732C11.5754 6.60315 11.632 6.74398 11.632 6.91148C11.632 7.07398 11.5737 7.21398 11.4562 7.33148C11.3379 7.44898 11.1979 7.50732 11.0354 7.50732C10.872 7.50732 10.732 7.44898 10.6145 7.33148C10.4962 7.21398 10.4387 7.07398 10.4387 6.91148C10.4387 6.74398 10.4962 6.60315 10.6112 6.48732C10.727 6.37148 10.8687 6.31398 11.0354 6.31398ZM10.2287 3.33398C6.41953 3.33398 3.33203 6.42065 3.33203 10.2298C3.33203 14.0382 6.41953 17.1257 10.2287 17.1257C14.0379 17.1257 17.1254 14.0373 17.1254 10.229C17.1254 6.41982 14.0379 3.33398 10.2287 3.33398Z" fill="white"/>
</mask>
<g mask="url(#mask0_9774_4809)">
<path d="M20 0H0V20H20V0Z" fill="#333333"/>
</g>
</svg>
