<svg width="20" height="20" viewBox="0 0 20 20" xmlns="http://www.w3.org/2000/svg">

  <path
    d="M2.5 10.8333C2.5 10.6123 2.5878 10.4004 2.74408 10.2441C2.90036 10.0878 3.11232 10 3.33333 10H6.66667C6.88768 10 7.09964 10.0878 7.25592 10.2441C7.4122 10.4004 7.5 10.6123 7.5 10.8333V15.8333C7.5 16.0543 7.4122 16.2663 7.25592 16.4226C7.09964 16.5789 6.88768 16.6667 6.66667 16.6667H3.33333C3.11232 16.6667 2.90036 16.5789 2.74408 16.4226C2.5878 16.2663 2.5 16.0543 2.5 15.8333V10.8333Z"
    stroke-width="1.25" fill="none" stroke-linecap="round" stroke-linejoin="round" />
  <path
    d="M7.5 7.5013C7.5 7.28029 7.5878 7.06833 7.74408 6.91205C7.90036 6.75577 8.11232 6.66797 8.33333 6.66797H11.6667C11.8877 6.66797 12.0996 6.75577 12.2559 6.91205C12.4122 7.06833 12.5 7.28029 12.5 7.5013V15.8346C12.5 16.0556 12.4122 16.2676 12.2559 16.4239C12.0996 16.5802 11.8877 16.668 11.6667 16.668H8.33333C8.11232 16.668 7.90036 16.5802 7.74408 16.4239C7.5878 16.2676 7.5 16.0556 7.5 15.8346V7.5013Z"
    stroke-width="1.25" fill="none" stroke-linecap="round" stroke-linejoin="round" />
  <path
    d="M12.5 4.16732C12.5 3.9463 12.5878 3.73434 12.7441 3.57806C12.9004 3.42178 13.1123 3.33398 13.3333 3.33398H16.6667C16.8877 3.33398 17.0996 3.42178 17.2559 3.57806C17.4122 3.73434 17.5 3.9463 17.5 4.16732V15.834C17.5 16.055 17.4122 16.267 17.2559 16.4232C17.0996 16.5795 16.8877 16.6673 16.6667 16.6673H13.3333C13.1123 16.6673 12.9004 16.5795 12.7441 16.4232C12.5878 16.267 12.5 16.055 12.5 15.834V4.16732Z"
    stroke-width="1.25" fill="none" stroke-linecap="round" stroke-linejoin="round" />


</svg>